<?xml version="1.0" standalone="no"?><!DOCTYPE svg PUBLIC "-//W3C//DTD SVG 1.1//EN" "http://www.w3.org/Graphics/SVG/1.1/DTD/svg11.dtd"><svg t="1587555867709" class="icon" viewBox="0 0 1024 1024" version="1.1" xmlns="http://www.w3.org/2000/svg" p-id="1170" xmlns:xlink="http://www.w3.org/1999/xlink" width="200" height="200"><defs><style type="text/css"></style></defs><path d="M450.56 820.48c4.48 4.48 10.88 7.04 16.64 8.96C471.04 831.36 475.52 832 480 832s8.96-0.64 12.8-2.56c6.4-1.28 12.16-3.84 16.64-8.96l313.6-313.6c14.08-14.08 14.08-35.84 0-49.92-14.08-14.08-35.84-14.08-49.92 0L512 718.08 512 160C512 142.08 497.92 128 480 128 462.08 128 448 142.08 448 160l0 558.08L186.88 456.96c-14.08-14.08-35.84-14.08-49.92 0-14.08 14.08-14.08 35.84 0 49.92L450.56 820.48zM864 896l-768 0C78.08 896 64 910.08 64 928 64 945.92 78.08 960 96 960l768 0c17.92 0 32-14.08 32-32C896 910.08 881.92 896 864 896z" p-id="1171" fill="#1b54bc"></path></svg>